ffmpeg started on 2016-12-08 at 23:08:16
Report written to "Output/x264/results/ffmpeg/crowd_run_2160p50veryslow11000k.log"
Command line:
Tools/ffmpeg/ffmpeg -benchmark -y -i Input/y4m/crowd_run_2160p50.y4m -c:v libx264 -preset veryslow -b:v 11000k -an Output/x264/encoded/crowd_run_2160p50veryslow11000k.mkv
ffmpeg version N-82227-gdb23fde Copyright (c) 2000-2016 the FFmpeg developers
  built with gcc 5.4.0 (Ubuntu 5.4.0-6ubuntu1~16.04.2) 20160609
  configuration: --prefix=/home/jaroslav/ffmpeg_build --pkg-config-flags=--static --extra-cflags=-I/home/jaroslav/ffmpeg_build/include --extra-ldflags=-L/home/jaroslav/ffmpeg_build/lib --bindir=/home/jaroslav/bin --enable-gpl --enable-libass --enable-libfdk-aac --enable-libfreetype --enable-libmp3lame --enable-libopus --enable-libtheora --enable-libvorbis --enable-libvpx --enable-libx264 --enable-libx265 --enable-nvenc --enable-libmfx --enable-libxvid --enable-libgsm --enable-libopencore-amrnb --enable-version3 --enable-nonfree
  libavutil      55. 35.100 / 55. 35.100
  libavcodec     57. 66.101 / 57. 66.101
  libavformat    57. 57.100 / 57. 57.100
  libavdevice    57.  2.100 / 57.  2.100
  libavfilter     6. 66.100 /  6. 66.100
  libswscale      4.  3.100 /  4.  3.100
  libswresample   2.  4.100 /  2.  4.100
  libpostproc    54.  2.100 / 54.  2.100
Input #0, yuv4mpegpipe, from 'Input/y4m/crowd_run_2160p50.y4m':
  Duration: 00:00:10.00, start: 0.000000, bitrate: 4976642 kb/s
    Stream #0:0: Video: rawvideo (I420 / 0x30323449), yuv420p(progressive), 3840x2160, SAR 1:1 DAR 16:9, 50 fps, 50 tbr, 50 tbn, 50 tbc
[libx264 @ 0x28291c0] using SAR=1/1
[libx264 @ 0x28291c0] DPB size (16 frames, 518400 mbs) > level limit (5 frames, 184320 mbs)
[libx264 @ 0x28291c0] using cpu capabilities: MMX2 SSE2Fast SSSE3 SSE4.2 AVX FMA3 AVX2 LZCNT BMI2
[libx264 @ 0x28291c0] profile High, level 5.2
[libx264 @ 0x28291c0] 264 - core 148 - H.264/MPEG-4 AVC codec - Copyleft 2003-2016 - http://www.videolan.org/x264.html - options: cabac=1 ref=16 deblock=1:0:0 analyse=0x3:0x133 me=umh subme=10 psy=1 psy_rd=1.00:0.00 mixed_ref=1 me_range=24 chroma_me=1 trellis=2 8x8dct=1 cqm=0 deadzone=21,11 fast_pskip=1 chroma_qp_offset=-2 threads=6 lookahead_threads=1 sliced_threads=0 nr=0 decimate=1 interlaced=0 bluray_compat=0 constrained_intra=0 bframes=8 b_pyramid=2 b_adapt=2 b_bias=0 direct=3 weightb=1 open_gop=0 weightp=2 keyint=250 keyint_min=25 scenecut=40 intra_refresh=0 rc_lookahead=60 rc=abr mbtree=1 bitrate=11000 ratetol=1.0 qcomp=0.60 qpmin=0 qpmax=69 qpstep=4 ip_ratio=1.40 aq=1:1.00
Output #0, matroska, to 'Output/x264/encoded/crowd_run_2160p50veryslow11000k.mkv':
  Metadata:
    encoder         : Lavf57.57.100
    Stream #0:0: Video: h264 (libx264) (H264 / 0x34363248), yuv420p, 3840x2160 [SAR 1:1 DAR 16:9], q=-1--1, 11000 kb/s, 50 fps, 1k tbn, 50 tbc
    Metadata:
      encoder         : Lavc57.66.101 libx264
    Side data:
      cpb: bitrate max/min/avg: 0/0/11000000 buffer size: 0 vbv_delay: -1
Stream mapping:
  Stream #0:0 -> #0:0 (rawvideo (native) -> h264 (libx264))
Press [q] to stop, [?] for help
frame=   18 fps=0.0 q=0.0 size=       0kB time=00:00:00.00 bitrate=N/A speed=   0x    frame=   24 fps= 23 q=0.0 size=       0kB time=00:00:00.00 bitrate=N/A speed=   0x    frame=   34 fps= 21 q=0.0 size=       0kB time=00:00:00.00 bitrate=N/A speed=   0x    frame=   43 fps= 21 q=0.0 size=       0kB time=00:00:00.00 bitrate=N/A speed=   0x    frame=   52 fps= 20 q=0.0 size=       0kB time=00:00:00.00 bitrate=N/A speed=   0x    frame=   61 fps= 20 q=0.0 size=       0kB time=00:00:00.00 bitrate=N/A speed=   0x    frame=   70 fps= 19 q=0.0 size=       0kB time=00:00:00.00 bitrate=N/A speed=   0x    frame=   72 fps=6.6 q=0.0 size=       0kB time=00:00:00.00 bitrate=N/A speed=   0x    frame=   77 fps=5.9 q=41.0 size=       1kB time=-00:00:00.01 bitrate=N/A speed=N/A    frame=   78 fps=5.5 q=37.0 size=       1kB time=00:00:00.00 bitrate=5888.0kbits/s speed=7.04e-05x    frame=   80 fps=5.3 q=39.0 size=       1kB time=00:00:00.04 bitrate= 143.6kbits/s speed=0.00272x    frame=   84 fps=5.2 q=47.0 size=       1kB time=00:00:00.12 bitrate=  48.7kbits/s speed=0.00751x    frame=   85 fps=5.0 q=49.0 size=       1kB time=00:00:00.14 bitrate=  41.8kbits/s speed=0.00834x    frame=   88 fps=5.0 q=49.0 size=       1kB time=00:00:00.20 bitrate=  29.3kbits/s speed=0.0113x    frame=   91 fps=4.7 q=49.0 size=       1kB time=00:00:00.26 bitrate=  22.6kbits/s speed=0.0135x    frame=   92 fps=4.6 q=49.0 size=       1kB time=00:00:00.28 bitrate=  21.0kbits/s speed=0.0141x    frame=   95 fps=4.3 q=48.0 size=       1kB time=00:00:00.34 bitrate=  17.3kbits/s speed=0.0154x    frame=   97 fps=4.2 q=47.0 size=       1kB time=00:00:00.38 bitrate=  15.5kbits/s speed=0.0165x    frame=   99 fps=4.1 q=48.0 size=       1kB time=00:00:00.42 bitrate=  14.0kbits/s speed=0.0174x    frame=  100 fps=4.0 q=47.0 size=       1kB time=00:00:00.44 bitrate=  13.4kbits/s speed=0.0178x    frame=  101 fps=3.9 q=47.0 size=       1kB time=00:00:00.46 bitrate=  12.8kbits/s speed=0.0178x    frame=  102 fps=3.8 q=47.0 size=       1kB time=00:00:00.48 bitrate=  12.2kbits/s speed=0.0181x    frame=  103 fps=3.7 q=47.0 size=       1kB time=00:00:00.50 bitrate=  11.8kbits/s speed=0.018x    frame=  104 fps=3.6 q=47.0 size=       1kB time=00:00:00.52 bitrate=  11.3kbits/s speed=0.0183x    frame=  105 fps=3.6 q=47.0 size=       1kB time=00:00:00.54 bitrate=  10.9kbits/s speed=0.0186x    frame=  107 fps=3.5 q=47.0 size=       1kB time=00:00:00.58 bitrate=  10.1kbits/s speed=0.0188x    frame=  108 fps=3.4 q=47.0 size=       1kB time=00:00:00.60 bitrate=   9.8kbits/s speed=0.0189x    frame=  110 fps=3.4 q=47.0 size=       1kB time=00:00:00.64 bitrate=   9.2kbits/s speed=0.0198x    frame=  111 fps=3.2 q=47.0 size=       1kB time=00:00:00.66 bitrate=   8.9kbits/s speed=0.019x    frame=  112 fps=3.2 q=47.0 size=       1kB time=00:00:00.68 bitrate=   8.6kbits/s speed=0.0192x    frame=  115 fps=3.0 q=47.0 size=       1kB time=00:00:00.74 bitrate=   7.9kbits/s speed=0.0194x    frame=  116 fps=3.0 q=47.0 size=       1kB time=00:00:00.76 bitrate=   7.7kbits/s speed=0.0196x    frame=  118 fps=3.0 q=46.0 size=       1kB time=00:00:00.80 bitrate=   7.4kbits/s speed=0.0203x    frame=  120 fps=3.0 q=46.0 size=       1kB time=00:00:00.84 bitrate=   7.0kbits/s speed=0.0208x    frame=  121 fps=2.8 q=46.0 size=       1kB time=00:00:00.86 bitrate=   6.8kbits/s speed=0.0199x    frame=  122 fps=2.8 q=46.0 size=       1kB time=00:00:00.88 bitrate=   6.7kbits/s speed=0.0202x    frame=  124 fps=2.8 q=46.0 size=       1kB time=00:00:00.92 bitrate=   6.4kbits/s speed=0.0208x    frame=  125 fps=2.7 q=46.0 size=       1kB time=00:00:00.94 bitrate=   6.3kbits/s speed=0.0207x    frame=  127 fps=2.7 q=46.0 size=       1kB time=00:00:00.98 bitrate=   6.0kbits/s speed=0.021x    frame=  128 fps=2.6 q=46.0 size=       1kB time=00:00:01.00 bitrate=   5.9kbits/s speed=0.0204x    frame=  129 fps=2.6 q=46.0 size=       1kB time=00:00:01.02 bitrate=   5.8kbits/s speed=0.0206x    frame=  130 fps=2.6 q=46.0 size=       1kB time=00:00:01.04 bitrate=   5.7kbits/s speed=0.0207x    frame=  133 fps=2.6 q=46.0 size=       1kB time=00:00:01.10 bitrate=   5.3kbits/s speed=0.0215x    frame=  134 fps=2.5 q=46.0 size=       1kB time=00:00:01.12 bitrate=   5.3kbits/s speed=0.0208x    frame=  136 fps=2.5 q=46.0 size=       1kB time=00:00:01.16 bitrate=   5.1kbits/s speed=0.0213x    frame=  137 fps=2.5 q=46.0 size=       1kB time=00:00:01.18 bitrate=   5.0kbits/s speed=0.0214x    frame=  138 fps=2.5 q=46.0 size=       1kB time=00:00:01.20 bitrate=   4.9kbits/s speed=0.0213x    frame=  140 fps=2.5 q=46.0 size=       1kB time=00:00:01.24 bitrate=   4.7kbits/s speed=0.0217x    frame=  141 fps=2.4 q=46.0 size=       1kB time=00:00:01.26 bitrate=   4.7kbits/s speed=0.0212x    frame=  142 fps=2.3 q=46.0 size=       1kB time=00:00:01.28 bitrate=   4.6kbits/s speed=0.0211x    frame=  143 fps=2.3 q=46.0 size=       1kB time=00:00:01.30 bitrate=   4.5kbits/s speed=0.0212x    frame=  146 fps=2.3 q=45.0 size=       1kB time=00:00:01.36 bitrate=   4.3kbits/s speed=0.0216x    frame=  147 fps=2.3 q=45.0 size=       1kB time=00:00:01.38 bitrate=   4.3kbits/s speed=0.0216x    frame=  148 fps=2.3 q=45.0 size=       1kB time=00:00:01.40 bitrate=   4.2kbits/s speed=0.0216x    frame=  150 fps=2.2 q=45.0 size=       1kB time=00:00:01.44 bitrate=   4.1kbits/s speed=0.0213x    frame=  151 fps=2.2 q=45.0 size=       1kB time=00:00:01.46 bitrate=   4.0kbits/s speed=0.0214x    frame=  153 fps=2.2 q=45.0 size=       1kB time=00:00:01.50 bitrate=   3.9kbits/s speed=0.0218x    frame=  156 fps=2.2 q=45.0 size=       1kB time=00:00:01.56 bitrate=   3.8kbits/s speed=0.0216x    frame=  157 fps=2.2 q=45.0 size=       1kB time=00:00:01.58 bitrate=   3.7kbits/s speed=0.0217x    frame=  158 fps=2.1 q=45.0 size=       1kB time=00:00:01.60 bitrate=   3.7kbits/s speed=0.0218x    frame=  160 fps=2.1 q=45.0 size=       1kB time=00:00:01.64 bitrate=   3.6kbits/s speed=0.0219x    frame=  161 fps=2.1 q=45.0 size=       1kB time=00:00:01.66 bitrate=   3.5kbits/s speed=0.0219x    frame=  163 fps=2.1 q=45.0 size=       1kB time=00:00:01.70 bitrate=   3.5kbits/s speed=0.0222x    frame=  164 fps=2.1 q=45.0 size=       1kB time=00:00:01.72 bitrate=   3.4kbits/s speed=0.0217x    frame=  165 fps=2.1 q=45.0 size=       1kB time=00:00:01.74 bitrate=   3.4kbits/s speed=0.0217x    frame=  168 fps=2.1 q=45.0 size=       1kB time=00:00:01.80 bitrate=   3.3kbits/s speed=0.0221x    frame=  169 fps=2.1 q=45.0 size=       1kB time=00:00:01.82 bitrate=   3.2kbits/s speed=0.0221x    frame=  170 fps=2.0 q=45.0 size=       1kB time=00:00:01.84 bitrate=   3.2kbits/s speed=0.0221x    frame=  171 fps=2.0 q=45.0 size=       1kB time=00:00:01.86 bitrate=   3.2kbits/s speed=0.0222x    frame=  172 fps=2.0 q=45.0 size=       1kB time=00:00:01.88 bitrate=   3.1kbits/s speed=0.0218x    frame=  173 fps=2.0 q=45.0 size=       1kB time=00:00:01.90 bitrate=   3.1kbits/s speed=0.0219x    frame=  175 fps=2.0 q=45.0 size=       1kB time=00:00:01.94 bitrate=   3.0kbits/s speed=0.0221x    frame=  178 fps=2.0 q=45.0 size=       1kB time=00:00:02.00 bitrate=   2.9kbits/s speed=0.022x    frame=  179 fps=1.9 q=45.0 size=       1kB time=00:00:02.02 bitrate=   2.9kbits/s speed=0.022x    frame=  180 fps=1.9 q=45.0 size=       1kB time=00:00:02.04 bitrate=   2.9kbits/s speed=0.0221x    frame=  182 fps=2.0 q=45.0 size=       1kB time=00:00:02.08 bitrate=   2.8kbits/s speed=0.0224x    frame=  183 fps=1.9 q=45.0 size=       1kB time=00:00:02.10 bitrate=   2.8kbits/s speed=0.0223x    frame=  184 fps=1.9 q=45.0 size=       1kB time=00:00:02.12 bitrate=   2.8kbits/s speed=0.0224x    frame=  185 fps=1.9 q=44.0 size=       1kB time=00:00:02.14 bitrate=   2.8kbits/s speed=0.0224x    frame=  186 fps=1.9 q=45.0 size=       1kB time=00:00:02.16 bitrate=   2.7kbits/s speed=0.0221x    frame=  187 fps=1.9 q=45.0 size=       1kB time=00:00:02.18 bitrate=   2.7kbits/s speed=0.0221x    frame=  188 fps=1.9 q=45.0 size=       1kB time=00:00:02.20 bitrate=   2.7kbits/s speed=0.0221x    frame=  191 fps=1.9 q=44.0 size=       1kB time=00:00:02.26 bitrate=   2.6kbits/s speed=0.0226x    frame=  192 fps=1.9 q=44.0 size=       1kB time=00:00:02.28 bitrate=   2.6kbits/s speed=0.0221x    frame=  193 fps=1.9 q=44.0 size=       1kB time=00:00:02.30 bitrate=   2.6kbits/s speed=0.0222x    frame=  196 fps=1.9 q=44.0 size=       1kB time=00:00:02.36 bitrate=   2.5kbits/s speed=0.0224x    frame=  197 fps=1.9 q=44.0 size=       1kB time=00:00:02.38 bitrate=   2.5kbits/s speed=0.0224x    frame=  198 fps=1.8 q=44.0 size=       1kB time=00:00:02.40 bitrate=   2.5kbits/s speed=0.0223x    frame=  200 fps=1.8 q=44.0 size=       1kB time=00:00:02.44 bitrate=   2.4kbits/s speed=0.0225x    frame=  201 fps=1.8 q=44.0 size=       1kB time=00:00:02.46 bitrate=   2.4kbits/s speed=0.0224x    frame=  202 fps=1.8 q=44.0 size=       1kB time=00:00:02.48 bitrate=   2.4kbits/s speed=0.0224x    frame=  203 fps=1.8 q=44.0 size=       1kB time=00:00:02.50 bitrate=   2.4kbits/s speed=0.0224x    frame=  205 fps=1.8 q=44.0 size=       1kB time=00:00:02.54 bitrate=   2.3kbits/s speed=0.0224x    frame=  206 fps=1.8 q=44.0 size=       1kB time=00:00:02.56 bitrate=   2.3kbits/s speed=0.0223x    frame=  207 fps=1.8 q=44.0 size=       1kB time=00:00:02.58 bitrate=   2.3kbits/s speed=0.0224x    frame=  209 fps=1.8 q=44.0 size=       1kB time=00:00:02.62 bitrate=   2.2kbits/s speed=0.0226x    frame=  210 fps=1.8 q=44.0 size=       1kB time=00:00:02.64 bitrate=   2.2kbits/s speed=0.0224x    frame=  211 fps=1.8 q=44.0 size=       1kB time=00:00:02.66 bitrate=   2.2kbits/s speed=0.0224x    frame=  212 fps=1.8 q=44.0 size=       1kB time=00:00:02.68 bitrate=   2.2kbits/s speed=0.0225x    frame=  214 fps=1.8 q=44.0 size=       1kB time=00:00:02.72 bitrate=   2.2kbits/s speed=0.0224x    frame=  215 fps=1.8 q=44.0 size=       1kB time=00:00:02.74 bitrate=   2.1kbits/s speed=0.0223x    frame=  216 fps=1.8 q=44.0 size=       1kB time=00:00:02.76 bitrate=   2.1kbits/s speed=0.0224x    frame=  219 fps=1.8 q=44.0 size=       1kB time=00:00:02.82 bitrate=   2.1kbits/s speed=0.0226x    frame=  220 fps=1.7 q=44.0 size=       1kB time=00:00:02.84 bitrate=   2.1kbits/s speed=0.0223x    frame=  222 fps=1.7 q=44.0 size=       1kB time=00:00:02.88 bitrate=   2.0kbits/s speed=0.0225x    frame=  224 fps=1.7 q=44.0 size=       1kB time=00:00:02.92 bitrate=   2.0kbits/s speed=0.0226x    frame=  225 fps=1.7 q=44.0 size=       1kB time=00:00:02.94 bitrate=   2.0kbits/s speed=0.0224x    frame=  226 fps=1.7 q=44.0 size=       1kB time=00:00:02.96 bitrate=   2.0kbits/s speed=0.0224x    frame=  229 fps=1.7 q=44.0 size=       1kB time=00:00:03.02 bitrate=   1.9kbits/s speed=0.0224x    frame=  230 fps=1.7 q=44.0 size=       1kB time=00:00:03.04 bitrate=   1.9kbits/s speed=0.0224x    frame=  231 fps=1.7 q=44.0 size=       1kB time=00:00:03.06 bitrate=   1.9kbits/s speed=0.0225x    frame=  234 fps=1.7 q=44.0 size=       1kB time=00:00:03.12 bitrate=   1.9kbits/s speed=0.0226x    frame=  235 fps=1.7 q=44.0 size=       1kB time=00:00:03.14 bitrate=   1.9kbits/s speed=0.0224x    frame=  236 fps=1.7 q=44.0 size=       1kB time=00:00:03.16 bitrate=   1.9kbits/s speed=0.0225x    frame=  239 fps=1.7 q=44.0 size=       1kB time=00:00:03.22 bitrate=   1.8kbits/s speed=0.0225x    frame=  240 fps=1.7 q=44.0 size=       1kB time=00:00:03.24 bitrate=   1.8kbits/s speed=0.0225x    frame=  241 fps=1.7 q=44.0 size=       1kB time=00:00:03.26 bitrate=   1.8kbits/s speed=0.0225x    frame=  245 fps=1.6 q=44.0 size=       1kB time=00:00:03.34 bitrate=   1.8kbits/s speed=0.0225x    frame=  246 fps=1.6 q=44.0 size=       1kB time=00:00:03.36 bitrate=   1.8kbits/s speed=0.0225x    frame=  247 fps=1.6 q=44.0 size=       1kB time=00:00:03.38 bitrate=   1.7kbits/s speed=0.0225x    frame=  250 fps=1.6 q=44.0 size=       1kB time=00:00:03.44 bitrate=   1.7kbits/s speed=0.0227x    frame=  251 fps=1.6 q=44.0 size=       1kB time=00:00:03.46 bitrate=   1.7kbits/s speed=0.0225x    frame=  253 fps=1.6 q=44.0 size=       1kB time=00:00:03.50 bitrate=   1.7kbits/s speed=0.0226x    frame=  256 fps=1.6 q=44.0 size=       1kB time=00:00:03.56 bitrate=   1.7kbits/s speed=0.0228x    frame=  257 fps=1.6 q=44.0 size=       1kB time=00:00:03.58 bitrate=   1.6kbits/s speed=0.0225x    frame=  259 fps=1.6 q=44.0 size=       1kB time=00:00:03.62 bitrate=   1.6kbits/s speed=0.0227x    frame=  260 fps=1.6 q=44.0 size=       1kB time=00:00:03.64 bitrate=   1.6kbits/s speed=0.0228x    frame=  261 fps=1.6 q=44.0 size=       1kB time=00:00:03.66 bitrate=   1.6kbits/s speed=0.0228x    frame=  263 fps=1.6 q=44.0 size=    5131kB time=00:00:03.70 bitrate=11357.5kbits/s speed=0.0227x    frame=  264 fps=1.6 q=44.0 size=    5131kB time=00:00:03.72 bitrate=11296.5kbits/s speed=0.0226x    frame=  265 fps=1.6 q=44.0 size=    5131kB time=00:00:03.74 bitrate=11236.1kbits/s speed=0.0226x    frame=  266 fps=1.6 q=44.0 size=    5131kB time=00:00:03.76 bitrate=11176.4kbits/s speed=0.0226x    frame=  268 fps=1.6 q=44.0 size=    5131kB time=00:00:03.80 bitrate=11058.7kbits/s speed=0.0227x    frame=  269 fps=1.6 q=44.0 size=    5131kB time=00:00:03.82 bitrate=11000.9kbits/s speed=0.0227x    frame=  270 fps=1.6 q=44.0 size=    5131kB time=00:00:03.84 bitrate=10943.6kbits/s speed=0.0228x    frame=  271 fps=1.6 q=44.0 size=    5131kB time=00:00:03.86 bitrate=10886.9kbits/s speed=0.0228x    frame=  272 fps=1.6 q=44.0 size=    5131kB time=00:00:03.88 bitrate=10830.8kbits/s speed=0.0227x    frame=  273 fps=1.6 q=44.0 size=    5131kB time=00:00:03.90 bitrate=10775.3kbits/s speed=0.0226x    frame=  274 fps=1.6 q=44.0 size=    5131kB time=00:00:03.92 bitrate=10720.3kbits/s speed=0.0227x    frame=  275 fps=1.6 q=44.0 size=    5131kB time=00:00:03.94 bitrate=10665.9kbits/s speed=0.0227x    frame=  277 fps=1.6 q=44.0 size=    5131kB time=00:00:03.98 bitrate=10558.7kbits/s speed=0.0226x    frame=  278 fps=1.6 q=44.0 size=    5131kB time=00:00:04.00 bitrate=10505.9kbits/s speed=0.0227x    frame=  280 fps=1.6 q=44.0 size=    5131kB time=00:00:04.04 bitrate=10401.9kbits/s speed=0.0228x    frame=  281 fps=1.6 q=44.0 size=    5131kB time=00:00:04.06 bitrate=10350.7kbits/s speed=0.0228x    frame=  282 fps=1.6 q=44.0 size=    5131kB time=00:00:04.08 bitrate=10300.0kbits/s speed=0.0227x    frame=  283 fps=1.6 q=44.0 size=    5131kB time=00:00:04.10 bitrate=10249.8kbits/s speed=0.0227x    frame=  284 fps=1.6 q=44.0 size=    5131kB time=00:00:04.12 bitrate=10200.0kbits/s speed=0.0227x    frame=  286 fps=1.6 q=44.0 size=    5131kB time=00:00:04.16 bitrate=10102.0kbits/s speed=0.0227x    frame=  287 fps=1.6 q=44.0 size=    5131kB time=00:00:04.18 bitrate=10053.6kbits/s speed=0.0227x    frame=  289 fps=1.6 q=44.0 size=    5131kB time=00:00:04.22 bitrate=9958.4kbits/s speed=0.0229x    frame=  290 fps=1.6 q=44.0 size=    5131kB time=00:00:04.24 bitrate=9911.4kbits/s speed=0.0227x    frame=  291 fps=1.6 q=44.0 size=    5131kB time=00:00:04.26 bitrate=9864.9kbits/s speed=0.0228x    frame=  293 fps=1.6 q=44.0 size=    5131kB time=00:00:04.30 bitrate=9773.1kbits/s speed=0.0229x    frame=  294 fps=1.5 q=44.0 size=    5131kB time=00:00:04.32 bitrate=9727.9kbits/s speed=0.0227x    frame=  295 fps=1.5 q=44.0 size=    5131kB time=00:00:04.34 bitrate=9683.1kbits/s speed=0.0227x    frame=  297 fps=1.5 q=44.0 size=    5131kB time=00:00:04.38 bitrate=9594.7kbits/s speed=0.0229x    frame=  299 fps=1.5 q=44.0 size=    5131kB time=00:00:04.42 bitrate=9507.9kbits/s speed=0.0229x    frame=  300 fps=1.5 q=44.0 size=    5131kB time=00:00:04.44 bitrate=9465.0kbits/s speed=0.0228x    frame=  302 fps=1.5 q=44.0 size=    5131kB time=00:00:04.48 bitrate=9380.6kbits/s speed=0.0229x    frame=  303 fps=1.5 q=44.0 size=    5131kB time=00:00:04.50 bitrate=9338.9kbits/s speed=0.0228x    frame=  304 fps=1.5 q=44.0 size=    5131kB time=00:00:04.52 bitrate=9297.6kbits/s speed=0.0228x    frame=  305 fps=1.5 q=44.0 size=    5131kB time=00:00:04.54 bitrate=9256.6kbits/s speed=0.0228x    frame=  307 fps=1.5 q=44.0 size=    5131kB time=00:00:04.58 bitrate=9175.8kbits/s speed=0.0228x    frame=  308 fps=1.5 q=44.0 size=    5131kB time=00:00:04.60 bitrate=9135.9kbits/s speed=0.0228x    frame=  309 fps=1.5 q=44.0 size=    5131kB time=00:00:04.62 bitrate=9096.4kbits/s speed=0.0228x    frame=  311 fps=1.5 q=44.0 size=    5131kB time=00:00:04.66 bitrate=9018.3kbits/s speed=0.0228x    frame=  312 fps=1.5 q=44.0 size=    5131kB time=00:00:04.68 bitrate=8979.8kbits/s speed=0.0228x    frame=  313 fps=1.5 q=44.0 size=    5131kB time=00:00:04.70 bitrate=8941.6kbits/s speed=0.0229x    frame=  314 fps=1.5 q=44.0 size=    5131kB time=00:00:04.72 bitrate=8903.7kbits/s speed=0.0229x    frame=  315 fps=1.5 q=44.0 size=    5131kB time=00:00:04.74 bitrate=8866.1kbits/s speed=0.0228x    frame=  316 fps=1.5 q=44.0 size=    5131kB time=00:00:04.76 bitrate=8828.9kbits/s speed=0.0228x    frame=  318 fps=1.5 q=44.0 size=    5131kB time=00:00:04.80 bitrate=8755.3kbits/s speed=0.0229x    frame=  319 fps=1.5 q=44.0 size=    5131kB time=00:00:04.82 bitrate=8719.0kbits/s speed=0.0227x    frame=  320 fps=1.5 q=44.0 size=    5131kB time=00:00:04.84 bitrate=8683.0kbits/s speed=0.0228x    frame=  322 fps=1.5 q=44.0 size=    5131kB time=00:00:04.88 bitrate=8611.8kbits/s speed=0.0229x    frame=  325 fps=1.5 q=44.0 size=    5131kB time=00:00:04.94 bitrate=8507.2kbits/s speed=0.0229x    frame=  331 fps=1.5 q=44.0 size=    6803kB time=00:00:05.06 bitrate=11012.4kbits/s speed=0.0234x    frame=  332 fps=1.5 q=44.0 size=    6803kB time=00:00:05.08 bitrate=10969.0kbits/s speed=0.0234x    frame=  334 fps=1.5 q=44.0 size=    6803kB time=00:00:05.12 bitrate=10883.4kbits/s speed=0.0235x    frame=  336 fps=1.5 q=44.0 size=    6803kB time=00:00:05.16 bitrate=10799.0kbits/s speed=0.0236x    frame=  338 fps=1.5 q=44.0 size=    6803kB time=00:00:05.20 bitrate=10716.0kbits/s speed=0.0237x    frame=  341 fps=1.5 q=44.0 size=    6803kB time=00:00:05.26 bitrate=10593.8kbits/s speed=0.0238x    frame=  342 fps=1.5 q=44.0 size=    6803kB time=00:00:05.28 bitrate=10553.6kbits/s speed=0.0238x    frame=  345 fps=1.5 q=44.0 size=    6803kB time=00:00:05.34 bitrate=10435.1kbits/s speed=0.0239x    frame=  347 fps=1.5 q=44.0 size=    6803kB time=00:00:05.38 bitrate=10357.5kbits/s speed=0.024x    frame=  348 fps=1.5 q=44.0 size=    6803kB time=00:00:05.40 bitrate=10319.2kbits/s speed=0.024x    frame=  349 fps=1.5 q=44.0 size=    6803kB time=00:00:05.42 bitrate=10281.1kbits/s speed=0.0239x    frame=  351 fps=1.5 q=44.0 size=    6803kB time=00:00:05.46 bitrate=10205.8kbits/s speed=0.024x    frame=  353 fps=1.5 q=44.0 size=    6803kB time=00:00:05.50 bitrate=10131.6kbits/s speed=0.024x    frame=  355 fps=1.5 q=44.0 size=    6803kB time=00:00:05.54 bitrate=10058.4kbits/s speed=0.024x    frame=  356 fps=1.5 q=44.0 size=    6803kB time=00:00:05.56 bitrate=10022.3kbits/s speed=0.024x    frame=  357 fps=1.5 q=44.0 size=    6803kB time=00:00:05.58 bitrate=9986.3kbits/s speed=0.0239x    frame=  358 fps=1.5 q=44.0 size=    6803kB time=00:00:05.60 bitrate=9950.7kbits/s speed=0.0239x    frame=  360 fps=1.5 q=44.0 size=    6803kB time=00:00:05.64 bitrate=9880.1kbits/s speed=0.0241x    frame=  361 fps=1.5 q=44.0 size=    6803kB time=00:00:05.66 bitrate=9845.2kbits/s speed=0.024x    frame=  363 fps=1.5 q=44.0 size=    6803kB time=00:00:05.70 bitrate=9776.1kbits/s speed=0.0241x    frame=  364 fps=1.5 q=44.0 size=    6803kB time=00:00:05.72 bitrate=9742.0kbits/s speed=0.024x    frame=  365 fps=1.5 q=44.0 size=    6803kB time=00:00:05.74 bitrate=9708.0kbits/s speed=0.0239x    frame=  366 fps=1.5 q=44.0 size=    6803kB time=00:00:05.76 bitrate=9674.3kbits/s speed=0.024x    frame=  369 fps=1.5 q=44.0 size=    6803kB time=00:00:05.82 bitrate=9574.6kbits/s speed=0.0241x    frame=  370 fps=1.5 q=44.0 size=    6803kB time=00:00:05.84 bitrate=9541.8kbits/s speed=0.0241x    frame=  371 fps=1.5 q=44.0 size=    6803kB time=00:00:05.86 bitrate=9509.3kbits/s speed=0.0241x    frame=  372 fps=1.5 q=44.0 size=    6803kB time=00:00:05.88 bitrate=9476.9kbits/s speed=0.0241x    frame=  373 fps=1.5 q=44.0 size=    6803kB time=00:00:05.90 bitrate=9444.8kbits/s speed=0.0239x    frame=  374 fps=1.5 q=44.0 size=    6803kB time=00:00:05.92 bitrate=9412.9kbits/s speed=0.024x    frame=  375 fps=1.5 q=44.0 size=    6803kB time=00:00:05.94 bitrate=9381.2kbits/s speed=0.024x    frame=  378 fps=1.5 q=44.0 size=    6803kB time=00:00:06.00 bitrate=9287.4kbits/s speed=0.0241x    frame=  379 fps=1.5 q=44.0 size=    6803kB time=00:00:06.02 bitrate=9256.6kbits/s speed=0.024x    frame=  380 fps=1.5 q=44.0 size=    6803kB time=00:00:06.04 bitrate=9225.9kbits/s speed=0.024x    frame=  382 fps=1.5 q=44.0 size=    6803kB time=00:00:06.08 bitrate=9165.2kbits/s speed=0.0241x    frame=  383 fps=1.5 q=44.0 size=    6803kB time=00:00:06.10 bitrate=9135.2kbits/s speed=0.0241x    frame=  384 fps=1.5 q=44.0 size=    6803kB time=00:00:06.12 bitrate=9105.3kbits/s speed=0.0241x    frame=  385 fps=1.5 q=44.0 size=    6803kB time=00:00:06.14 bitrate=9075.7kbits/s speed=0.0241x    frame=  386 fps=1.5 q=44.0 size=    6803kB time=00:00:06.16 bitrate=9046.2kbits/s speed=0.024x    frame=  387 fps=1.5 q=44.0 size=    6803kB time=00:00:06.18 bitrate=9016.9kbits/s speed=0.024x    frame=  388 fps=1.5 q=44.0 size=    6803kB time=00:00:06.20 bitrate=8987.9kbits/s speed=0.024x    frame=  390 fps=1.5 q=44.0 size=    6803kB time=00:00:06.24 bitrate=8930.3kbits/s speed=0.0241x    frame=  391 fps=1.5 q=44.0 size=    6803kB time=00:00:06.26 bitrate=8901.7kbits/s speed=0.0241x    frame=  392 fps=1.5 q=44.0 size=    6803kB time=00:00:06.28 bitrate=8873.4kbits/s speed=0.0241x    frame=  393 fps=1.5 q=44.0 size=    6803kB time=00:00:06.30 bitrate=8845.2kbits/s speed=0.0241x    frame=  394 fps=1.5 q=44.0 size=    6803kB time=00:00:06.32 bitrate=8817.2kbits/s speed=0.024x    frame=  395 fps=1.5 q=44.0 size=    6803kB time=00:00:06.34 bitrate=8789.4kbits/s speed=0.024x    frame=  396 fps=1.5 q=44.0 size=    6803kB time=00:00:06.36 bitrate=8761.8kbits/s speed=0.024x    frame=  398 fps=1.5 q=44.0 size=    6803kB time=00:00:06.40 bitrate=8707.0kbits/s speed=0.0241x    frame=  399 fps=1.5 q=44.0 size=    6803kB time=00:00:06.42 bitrate=8679.9kbits/s speed=0.0241x    frame=  401 fps=1.5 q=44.0 size=    6803kB time=00:00:06.46 bitrate=8626.2kbits/s speed=0.0241x    frame=  402 fps=1.5 q=44.0 size=    6803kB time=00:00:06.48 bitrate=8599.6kbits/s speed=0.024x    frame=  403 fps=1.5 q=44.0 size=    6803kB time=00:00:06.50 bitrate=8573.1kbits/s speed=0.024x    frame=  405 fps=1.5 q=44.0 size=    6803kB time=00:00:06.54 bitrate=8520.7kbits/s speed=0.0241x    frame=  407 fps=1.5 q=44.0 size=    6803kB time=00:00:06.58 bitrate=8468.9kbits/s speed=0.0241x    frame=  408 fps=1.5 q=44.0 size=    6803kB time=00:00:06.60 bitrate=8443.2kbits/s speed=0.024x    frame=  411 fps=1.5 q=44.0 size=    6803kB time=00:00:06.66 bitrate=8367.2kbits/s speed=0.024x    frame=  413 fps=1.5 q=44.0 size=    6803kB time=00:00:06.70 bitrate=8317.2kbits/s speed=0.0241x    frame=  414 fps=1.5 q=44.0 size=    6803kB time=00:00:06.72 bitrate=8292.5kbits/s speed=0.024x    frame=  415 fps=1.5 q=44.0 size=    6803kB time=00:00:06.74 bitrate=8267.9kbits/s speed=0.024x    frame=  416 fps=1.5 q=44.0 size=    6803kB time=00:00:06.76 bitrate=8243.4kbits/s speed=0.024x    frame=  417 fps=1.5 q=44.0 size=    6803kB time=00:00:06.78 bitrate=8219.1kbits/s speed=0.024x    frame=  420 fps=1.5 q=44.0 size=    6803kB time=00:00:06.84 bitrate=8147.0kbits/s speed=0.0241x    frame=  421 fps=1.5 q=44.0 size=    6803kB time=00:00:06.86 bitrate=8123.3kbits/s speed=0.024x    frame=  423 fps=1.5 q=44.0 size=    6803kB time=00:00:06.90 bitrate=8076.2kbits/s speed=0.0241x    frame=  424 fps=1.5 q=44.0 size=    6803kB time=00:00:06.92 bitrate=8052.8kbits/s speed=0.024x    frame=  426 fps=1.5 q=44.0 size=    6803kB time=00:00:06.96 bitrate=8006.6kbits/s speed=0.0241x    frame=  428 fps=1.5 q=44.0 size=    6803kB time=00:00:07.00 bitrate=7960.8kbits/s speed=0.0239x    frame=  429 fps=1.5 q=44.0 size=    6803kB time=00:00:07.02 bitrate=7938.1kbits/s speed=0.024x    frame=  430 fps=1.5 q=44.0 size=    6803kB time=00:00:07.04 bitrate=7915.6kbits/s speed=0.024x    frame=  434 fps=1.5 q=44.0 size=    6803kB time=00:00:07.12 bitrate=7826.7kbits/s speed=0.024x    frame=  435 fps=1.5 q=44.0 size=    6803kB time=00:00:07.14 bitrate=7804.8kbits/s speed=0.024x    frame=  438 fps=1.5 q=44.0 size=    6803kB time=00:00:07.20 bitrate=7739.7kbits/s speed=0.0241x    frame=  440 fps=1.5 q=44.0 size=    6803kB time=00:00:07.24 bitrate=7697.0kbits/s speed=0.0241x    frame=  441 fps=1.5 q=44.0 size=    6803kB time=00:00:07.26 bitrate=7675.8kbits/s speed=0.024x    frame=  442 fps=1.5 q=44.0 size=    6803kB time=00:00:07.28 bitrate=7654.7kbits/s speed=0.024x    frame=  443 fps=1.5 q=44.0 size=    6803kB time=00:00:07.30 bitrate=7633.7kbits/s speed=0.024x    frame=  445 fps=1.5 q=44.0 size=    6803kB time=00:00:07.34 bitrate=7592.1kbits/s speed=0.0241x    frame=  446 fps=1.5 q=44.0 size=    6803kB time=00:00:07.36 bitrate=7571.5kbits/s speed=0.0241x    frame=  447 fps=1.5 q=44.0 size=    6803kB time=00:00:07.38 bitrate=7551.0kbits/s speed=0.0241x    frame=  449 fps=1.5 q=44.0 size=    6803kB time=00:00:07.42 bitrate=7510.3kbits/s speed=0.024x    frame=  450 fps=1.5 q=44.0 size=    6803kB time=00:00:07.44 bitrate=7490.1kbits/s speed=0.024x    frame=  451 fps=1.5 q=44.0 size=    6803kB time=00:00:07.46 bitrate=7470.0kbits/s speed=0.024x    frame=  454 fps=1.5 q=44.0 size=    6803kB time=00:00:07.52 bitrate=7410.4kbits/s speed=0.0241x    frame=  455 fps=1.5 q=44.0 size=    6803kB time=00:00:07.54 bitrate=7390.8kbits/s speed=0.0241x    frame=  456 fps=1.5 q=44.0 size=    6803kB time=00:00:07.56 bitrate=7371.2kbits/s speed=0.0241x    frame=  457 fps=1.4 q=44.0 size=    6803kB time=00:00:07.58 bitrate=7351.8kbits/s speed=0.024x    frame=  458 fps=1.5 q=44.0 size=    6803kB time=00:00:07.60 bitrate=7332.4kbits/s speed=0.0241x    frame=  459 fps=1.5 q=44.0 size=    6803kB time=00:00:07.62 bitrate=7313.2kbits/s speed=0.0241x    frame=  461 fps=1.5 q=44.0 size=    6803kB time=00:00:07.66 bitrate=7275.0kbits/s speed=0.0241x    frame=  462 fps=1.5 q=44.0 size=    6803kB time=00:00:07.68 bitrate=7256.1kbits/s speed=0.0241x    frame=  463 fps=1.5 q=44.0 size=    6803kB time=00:00:07.70 bitrate=7237.2kbits/s speed=0.0241x    frame=  465 fps=1.4 q=44.0 size=    6803kB time=00:00:07.74 bitrate=7199.8kbits/s speed=0.0241x    frame=  467 fps=1.4 q=44.0 size=    6803kB time=00:00:07.78 bitrate=7162.8kbits/s speed=0.0241x    frame=  468 fps=1.4 q=44.0 size=    6803kB time=00:00:07.80 bitrate=7144.4kbits/s speed=0.0241x    frame=  469 fps=1.4 q=44.0 size=    6803kB time=00:00:07.82 bitrate=7126.2kbits/s speed=0.0241x    frame=  470 fps=1.4 q=44.0 size=    6803kB time=00:00:07.84 bitrate=7108.0kbits/s speed=0.0241x    frame=  472 fps=1.4 q=44.0 size=    6803kB time=00:00:07.88 bitrate=7071.9kbits/s speed=0.0242x    frame=  473 fps=1.4 q=44.0 size=    6803kB time=00:00:07.90 bitrate=7054.0kbits/s speed=0.0241x    frame=  474 fps=1.4 q=44.0 size=    6803kB time=00:00:07.92 bitrate=7036.2kbits/s speed=0.0241x    frame=  476 fps=1.4 q=44.0 size=    6803kB time=00:00:07.96 bitrate=7000.8kbits/s speed=0.0242x    frame=  478 fps=1.4 q=44.0 size=    6803kB time=00:00:08.00 bitrate=6965.8kbits/s speed=0.0241x    frame=  479 fps=1.4 q=44.0 size=    6803kB time=00:00:08.02 bitrate=6948.5kbits/s speed=0.0241x    frame=  480 fps=1.4 q=44.0 size=    6803kB time=00:00:08.04 bitrate=6931.2kbits/s speed=0.0241x    frame=  482 fps=1.4 q=44.0 size=    6803kB time=00:00:08.08 bitrate=6896.9kbits/s speed=0.0242x    frame=  483 fps=1.4 q=44.0 size=    6803kB time=00:00:08.10 bitrate=6879.9kbits/s speed=0.0242x    frame=  484 fps=1.4 q=44.0 size=    6803kB time=00:00:08.12 bitrate=6862.9kbits/s speed=0.0242x    frame=  486 fps=1.4 q=44.0 size=    6803kB time=00:00:08.16 bitrate=6829.3kbits/s speed=0.0241x    frame=  487 fps=1.4 q=44.0 size=    6803kB time=00:00:08.18 bitrate=6812.6kbits/s speed=0.0241x    frame=  489 fps=1.4 q=44.0 size=    6803kB time=00:00:08.22 bitrate=6779.4kbits/s speed=0.0242x    frame=  491 fps=1.4 q=44.0 size=    6803kB time=00:00:08.26 bitrate=6746.6kbits/s speed=0.0242x    frame=  492 fps=1.4 q=44.0 size=    6803kB time=00:00:08.28 bitrate=6730.3kbits/s speed=0.0242x    frame=  493 fps=1.4 q=44.0 size=    6803kB time=00:00:08.30 bitrate=6714.1kbits/s speed=0.0242x    frame=  494 fps=1.4 q=44.0 size=    6803kB time=00:00:08.32 bitrate=6698.0kbits/s speed=0.0242x    frame=  495 fps=1.4 q=44.0 size=    6803kB time=00:00:08.34 bitrate=6681.9kbits/s speed=0.0242x    frame=  496 fps=1.4 q=44.0 size=    6803kB time=00:00:08.36 bitrate=6665.9kbits/s speed=0.0242x    frame=  498 fps=1.4 q=44.0 size=    6803kB time=00:00:08.40 bitrate=6634.2kbits/s speed=0.0242x    frame=  499 fps=1.4 q=44.0 size=    6803kB time=00:00:08.42 bitrate=6618.4kbits/s speed=0.0242x    frame=  500 fps=1.4 q=44.0 size=    6803kB time=00:00:08.44 bitrate=6602.7kbits/s speed=0.0242x    frame=  500 fps=1.2 q=-1.0 Lsize=   13370kB time=00:00:09.94 bitrate=11017.5kbits/s speed=0.0246x    
video:13365kB audio:0kB subtitle:0kB other streams:0kB global headers:0kB muxing overhead: 0.033589%
bench: utime=1561.020s
bench: maxrss=3287748kB
[libx264 @ 0x28291c0] frame I:2     Avg QP:35.25  size:398670
[libx264 @ 0x28291c0] frame P:114   Avg QP:44.96  size: 55606
[libx264 @ 0x28291c0] frame B:384   Avg QP:46.76  size: 17054
[libx264 @ 0x28291c0] consecutive B-frames:  0.4%  0.0%  1.2% 60.0% 30.0%  8.4%  0.0%  0.0%  0.0%
[libx264 @ 0x28291c0] mb I  I16..4: 18.7% 73.9%  7.4%
[libx264 @ 0x28291c0] mb P  I16..4:  1.7%  4.3%  0.0%  P16..4: 38.4%  3.9%  6.0%  0.0%  0.0%    skip:45.7%
[libx264 @ 0x28291c0] mb B  I16..4:  0.0%  0.1%  0.0%  B16..8: 41.4%  1.6%  0.1%  direct: 0.2%  skip:56.6%  L0:44.5% L1:55.0% BI: 0.5%
[libx264 @ 0x28291c0] final ratefactor: 35.85
[libx264 @ 0x28291c0] 8x8 transform intra:72.7% inter:87.5%
[libx264 @ 0x28291c0] direct mvs  spatial:99.2% temporal:0.8%
[libx264 @ 0x28291c0] coded y,uvDC,uvAC intra: 33.4% 46.4% 15.4% inter: 1.8% 3.4% 0.1%
[libx264 @ 0x28291c0] i16 v,h,dc,p: 34% 22%  7% 37%
[libx264 @ 0x28291c0] i8 v,h,dc,ddl,ddr,vr,hd,vl,hu:  8%  4%  6% 12% 16% 15% 15% 13% 11%
[libx264 @ 0x28291c0] i4 v,h,dc,ddl,ddr,vr,hd,vl,hu:  6%  4%  1% 12% 16% 16% 16% 13% 16%
[libx264 @ 0x28291c0] i8c dc,h,v,p: 49% 18% 17% 16%
[libx264 @ 0x28291c0] Weighted P-Frames: Y:1.8% UV:0.9%
[libx264 @ 0x28291c0] ref P L0: 55.2%  5.3% 13.7%  4.3%  3.8%  3.2%  3.3%  1.6%  1.5%  1.2%  1.1%  1.1%  1.2%  1.2%  1.4%  0.9%
[libx264 @ 0x28291c0] ref B L0: 93.8%  3.1%  1.1%  0.4%  0.3%  0.3%  0.2%  0.1%  0.1%  0.1%  0.1%  0.1%  0.1%  0.1%  0.1%
[libx264 @ 0x28291c0] ref B L1: 98.9%  1.1%
[libx264 @ 0x28291c0] kb/s:10948.24
